<svg xmlns="http://www.w3.org/2000/svg" width="64.148" height="62.704" viewBox="0 0 64.148 62.704"><defs><style>.a{fill:#9ba29b;stroke:#9ba29b;stroke-width:0.6px;}</style></defs><g transform="translate(0.565 507.009)"><path class="a" d="M32.819-506.5a3.341,3.341,0,0,0-1.41,5.466l.507.569-.247.7-.235.693-1.113.087c-.606.049-1.669.185-2.337.3-1.014.161-1.249.161-1.323.025-.049-.087-.507-.742-1.014-1.459l-.915-1.3.309-.4a2.857,2.857,0,0,0-1.026-4.378c-.9-.42-1.57-.322-3.932.581-2.461.94-2.918,1.2-3.351,1.941A2.79,2.79,0,0,0,17-500.352a2.693,2.693,0,0,0,2.127.977h.692l.247,1.731.247,1.731-.866.569a22.834,22.834,0,0,0-3.19,2.51l-.94.878-.965-.408-.977-.42-.087-.717a2.961,2.961,0,0,0-1.224-2.115c-.47-.322-.618-.359-1.533-.359-.866,0-1.076.037-1.472.309a12.934,12.934,0,0,0-2.758,3.772,2.723,2.723,0,0,0,2.622,3.4,3.39,3.39,0,0,0,1.138-.235l.519-.247.7.8.7.8-.594,1.2a24.409,24.409,0,0,0-1.756,5.157,11.2,11.2,0,0,1-.247,1.162,21.529,21.529,0,0,1-3.6.767A3.275,3.275,0,0,0,4.4-480.5a2.994,2.994,0,0,0-4.254,1.83,22.291,22.291,0,0,0-.062,5.293,3.021,3.021,0,0,0,2.906,2.127,3.066,3.066,0,0,0,2.844-2.04,1,1,0,0,1,.124-.359c.136,0,3.339.767,3.425.816a.321.321,0,0,1,.1.235,3.415,3.415,0,0,0,.532,1.669.9.9,0,0,0,1.447-.309,3.81,3.81,0,0,0-.111-1.484c-.322-1.706-.247-1.657-3.512-2.411-1.484-.334-2.782-.618-2.881-.618a.961.961,0,0,0-.482.309,1.013,1.013,0,0,0-.309.9c0,1.026-.717,1.657-1.57,1.373-.68-.223-.779-.569-.779-2.77,0-2.56.2-3.03,1.274-3.03a.841.841,0,0,1,.754.383,1.377,1.377,0,0,1,.322.606,1.039,1.039,0,0,0,.618.965c.26.1.915-.012,2.918-.482,1.422-.334,2.683-.643,2.807-.68.383-.124.606-.643.9-2.139a19.511,19.511,0,0,1,1.793-5.268,8.486,8.486,0,0,0,.73-1.867c0-.433-.1-.581-1.57-2.3-1.546-1.805-1.706-1.867-2.56-1.088-.606.569-1.125.655-1.5.247-.4-.445-.284-.89.495-1.941,1.076-1.447,1.286-1.645,1.744-1.645a.865.865,0,0,1,.853.989,7.367,7.367,0,0,0-.148.829c-.049.433-.025.544.235.7a25.675,25.675,0,0,0,4.031,1.682c.4,0,.8-.26,1.3-.828a26.8,26.8,0,0,1,3.821-3.091c1.793-1.162,1.719-.9,1.237-4.229a21.9,21.9,0,0,0-.594-3.067c-.247-.4-.7-.47-1.323-.235-.742.284-1.162.247-1.509-.111a.826.826,0,0,1-.037-1.237,18.036,18.036,0,0,1,4.464-1.793,1.089,1.089,0,0,1,.952.927c0,.309-.136.47-1.076,1.3-.519.445-.383.779,1.261,3.153a18.752,18.752,0,0,0,1.892,2.448c.359.247.458.235,2.312-.1.618-.111,1.793-.247,2.634-.3,1.917-.111,1.917-.124,2.683-2.288.643-1.83.631-2-.284-2.535a1.421,1.421,0,0,1-.47-2.337l.433-.458.989.025c1.212.025,1.768.185,2.164.655a1.416,1.416,0,0,1-.594,2.325,1.81,1.81,0,0,0-.717.581,12.133,12.133,0,0,0,.47,3.957c.21.322.519.458,1.632.742a20.124,20.124,0,0,1,4.068,1.57c1.175.569,1.6.717,1.867.655a28.906,28.906,0,0,0,4.143-3.178c.94-.816.952-1.138.1-1.941a3.246,3.246,0,0,1-.692-.841,1.179,1.179,0,0,1,.495-1.076c.594-.223.9-.074,2.609,1.3.952.754,1.756,1.434,1.805,1.509a1.2,1.2,0,0,1-.148,1.2,1.294,1.294,0,0,1-1.41.062,1.055,1.055,0,0,0-1.237.037c-.111.136-.7,1.336-1.323,2.683-1.286,2.807-1.311,2.98-.519,3.8.556.569,1.249.655,1.57.2a1.044,1.044,0,0,0,.012-1.175c-.173-.247-.136-.383.544-1.855l.717-1.583.73-.012a2.994,2.994,0,0,0,2.127-.717,2.89,2.89,0,0,0,.618-3.4,7.717,7.717,0,0,0-2.016-1.966,19.451,19.451,0,0,0-2.35-1.694,2.794,2.794,0,0,0-3.71,3.87c.223.408.309.693.235.742s-.68.544-1.36,1.088l-1.237,1-.853-.433a23.358,23.358,0,0,0-3.858-1.509l-1-.284L37-499.276l-.087-.853.569-.519a3.341,3.341,0,0,0-1.323-5.713A7.8,7.8,0,0,0,32.819-506.5Z" transform="translate(0)"/><path class="a" d="M264.309-394.691a1.019,1.019,0,0,0-.309.618,1.018,1.018,0,0,0,.309.618c.26.272.408.309,1.15.309.68,0,.927-.049,1.187-.26a.812.812,0,0,0,.012-1.286c-.26-.272-.408-.309-1.175-.309S264.569-394.963,264.309-394.691Z" transform="translate(-231.391 -97.821)"/><path class="a" d="M149.784-381.61a9.136,9.136,0,0,0-4.526,2.708c-1.941,2.374-2.4,5.181-1.237,7.481a5.854,5.854,0,0,0,3.883,2.857,7.97,7.97,0,0,0,4.983-.8c.816-.544.482-1.793-.433-1.645a8.492,8.492,0,0,0-1.261.383,5.971,5.971,0,0,1-3.215.185,3.77,3.77,0,0,1-2.671-4.316,6.5,6.5,0,0,1,6.121-5.194,5.619,5.619,0,0,1,1.336.247c2.387.73,3.314,3.376,2.065,5.861-.458.915-.458,1.336-.037,1.669.631.495,1.138.3,1.608-.631a6.777,6.777,0,0,0,.791-4.155C156.647-380.374,153.419-382.4,149.784-381.61Z" transform="translate(-125.695 -109.405)"/><path class="a" d="M92.11-377.171a3.281,3.281,0,0,0-2.584,2.683c-.074.445-.111.495-.532.569-1.076.173-1.2.124-1.608-.606-.544-.965-1.039-1.162-1.669-.668-.47.371-.408.8.3,2,.841,1.422.878,1.434,3.178,1.1a5.529,5.529,0,0,0,2-.458c.148-.148.2-.433.2-1.125,0-.9.012-.952.408-1.3a1.193,1.193,0,0,1,.927-.359c.791,0,1.125.346,1.632,1.706.631,1.682.556,2.362-.334,2.819a1.4,1.4,0,0,1-1.719-.458c-.692-.7-.915-.668-2.634.519-1.892,1.311-1.9,1.336-1.5,3.153a25.794,25.794,0,0,1,.556,5.082c0,.94.025,1.051.346,1.385a29.838,29.838,0,0,0,5.478,2.486,1.181,1.181,0,0,0,.853-.829,1.473,1.473,0,0,1,.68-1.36.886.886,0,0,1,1.249.4c.2.309.2.42-.2,2.448a15.723,15.723,0,0,1-.569,2.4.929.929,0,0,1-1.533.161c-.185-.185-.247-.42-.247-.9,0-.544-.049-.717-.309-.952l-.3-.284-2.881.136c-3.364.161-3.339.161-3.784,1.4-.148.433-.643,1.533-1.076,2.424a11.01,11.01,0,0,0-.8,1.9c0,.4.2.68,1.5,2.226,1.4,1.657,1.62,1.781,2.35,1.3a1.4,1.4,0,0,1,2.337,1.076,3.652,3.652,0,0,1-1.422,2.04c-1.113.507-2.115-.346-1.966-1.657.062-.482.025-.655-.148-.878a16.852,16.852,0,0,0-4.13-1.768c-.322,0-.581.173-1.459,1.026a22.162,22.162,0,0,1-3.475,2.807,5.247,5.247,0,0,0-1.348,1.15c-.148.3-.111.693.272,3.079a21.223,21.223,0,0,0,.631,3.017c.26.4.7.458,1.422.173s1.138-.235,1.484.21a.839.839,0,0,1-.025,1.187,19.664,19.664,0,0,1-4.464,1.818,1.077,1.077,0,0,1-.952-.927c0-.309.136-.47,1.088-1.3.507-.445.371-.754-1.348-3.166a20.983,20.983,0,0,0-1.867-2.411,5.151,5.151,0,0,0-2.51.2,26.462,26.462,0,0,1-5.936.2c-2.486-.334-2.572-.334-3,.062a39.138,39.138,0,0,0-3.364,5.28c0,.4.235.693.742.952.754.383.915.717.816,1.669a7.964,7.964,0,0,1-.148.989c-.161.408-.655.346-2.683-.383-2.362-.841-2.807-1.175-2.807-2.028a1.085,1.085,0,0,1,.433-.952l.445-.445.89.074c1.447.124,1.41.185,1.83-3.784.26-2.424.272-2.733.1-3.03a5.852,5.852,0,0,0-1.472-1.113,22.753,22.753,0,0,1-4.18-3.178c-.977-.927-1.162-1.051-1.558-1.051a22.379,22.379,0,0,0-5.367,2.2c-.161.247-.161.383-.025.965.2.8.074,1.175-.495,1.472-.754.383-1.1.173-2.152-1.323-.742-1.063-.829-1.521-.383-2.053a1.106,1.106,0,0,1,1.719-.012c.742.643,1.039.519,2.4-1,1.805-2,2.362-2.708,2.448-3.042a7.891,7.891,0,0,0-1.348-3.054.879.879,0,0,0-1.447.655,4.3,4.3,0,0,0,.42,1.224l.433.841L46.8-351.116l-1.1,1.249-.433-.185a3.7,3.7,0,0,0-1.15-.173,2.915,2.915,0,0,0-2.857,3.747,11.577,11.577,0,0,0,2.1,3.1,3.819,3.819,0,0,0,1.966.816,5.126,5.126,0,0,0,.841-.185,3,3,0,0,0,2.115-2.634l.074-.668,1.472-.606c.8-.334,1.521-.606,1.583-.606a5.691,5.691,0,0,1,1.014.829,28.871,28.871,0,0,0,4.736,3.438c.037.012-.322,3.376-.4,3.722-.049.21-.173.272-.594.322a3.172,3.172,0,0,0-1.855.9,3.281,3.281,0,0,0,.383,4.934,27.689,27.689,0,0,0,5.3,1.9,2.417,2.417,0,0,0,2.6-2.115c.334-1.62.074-2.906-.742-3.648l-.309-.3.989-1.558c.544-.866,1.063-1.632,1.138-1.707.1-.111.47-.1,1.434.037a28.12,28.12,0,0,0,6.925-.2,5.575,5.575,0,0,1,1.249-.161,29.586,29.586,0,0,1,1.966,2.906.689.689,0,0,1-.235.383,3.191,3.191,0,0,0-.631,1.719,3.066,3.066,0,0,0,1.657,2.572c.952.433,1.608.334,4.081-.643,1.991-.791,2.3-.952,2.807-1.459a2.792,2.792,0,0,0-1.36-4.711,2.848,2.848,0,0,0-.94-.074l-.4.074-.272-1.632c-.148-.9-.26-1.706-.26-1.793s.247-.284.556-.458a22.353,22.353,0,0,0,3.3-2.646l.829-.8,1.051.47,1.039.458.087.594a3.474,3.474,0,0,0,2.337,2.733,3.386,3.386,0,0,0,3.6-1.348,3.642,3.642,0,0,0,1.15-2.461,2.884,2.884,0,0,0-.594-2.127,3.31,3.31,0,0,0-3.784-1.076c-.223.062-.383-.062-.952-.767l-.693-.841.47-.927c.26-.507.631-1.323.829-1.805.4-1.039.26-.989,2.547-1.063l1.447-.049.148.445a2.969,2.969,0,0,0,2.288,1.941,3.029,3.029,0,0,0,2.98-1.645,28.827,28.827,0,0,0,.977-5.466,2.953,2.953,0,0,0-1.175-1.929,3.175,3.175,0,0,0-2.325-.445,3.338,3.338,0,0,0-1.793,1.385l-.235.458-1.583-.692-1.583-.693-.087-1.57a27.245,27.245,0,0,0-.631-4.575c-.049-.136.136-.334.631-.668l.7-.458.68.322a3.031,3.031,0,0,0,3.8-.581c1.113-1.15,1.212-2.238.408-4.4-.581-1.533-1.063-2.214-1.855-2.622A3.776,3.776,0,0,0,92.11-377.171Z" transform="translate(-36.093 -113.412)"/><path class="a" d="M305-376.579a3.6,3.6,0,0,0-3,3.4,3.378,3.378,0,0,0,2.164,3.1c2.486,1.113,5.49-.334,5.713-2.758a3.222,3.222,0,0,0-1.434-3.054A4.749,4.749,0,0,0,305-376.579Zm2.214,2.127c1.447.816.94,2.5-.866,2.881a2.547,2.547,0,0,1-2.077-.643,1.087,1.087,0,0,1-.42-.965C303.855-374.538,305.772-375.256,307.218-374.452Z" transform="translate(-264.692 -113.893)"/><path class="a" d="M292.269-284.753a.983.983,0,0,0,.012,1.311c.2.185.445.235,1.063.235.692,0,.829-.037,1.039-.3a.956.956,0,0,0-.012-1.249c-.2-.2-.408-.247-1.051-.247S292.466-284.951,292.269-284.753Z" transform="translate(-255.95 -194.219)"/><path class="a" d="M133.668-263.574a1.251,1.251,0,0,0-.668.9,1.226,1.226,0,0,0,.3.556c.272.309.383.346,1.063.346s.8-.049,1.063-.346a.736.736,0,0,0,.025-1.138,1.184,1.184,0,0,0-.9-.371A2.3,2.3,0,0,0,133.668-263.574Z" transform="translate(-116.591 -212.936)"/><path class="a" d="M325.258-259.765a3.341,3.341,0,0,0-1.88,3.982,3.346,3.346,0,0,0,5.688,1.224,3.278,3.278,0,0,0-2.5-5.441A3.229,3.229,0,0,0,325.258-259.765Zm2.04,1.805a1.419,1.419,0,0,1,.569,1.9,1.43,1.43,0,0,1-1.36.754,1.392,1.392,0,0,1-1.249-2.028A1.453,1.453,0,0,1,327.3-257.96Z" transform="translate(-283.313 -216.127)"/><path class="a" d="M213.567-253.841a4.743,4.743,0,0,0-2.931,2.461,5.017,5.017,0,0,0,.049,3.5,4.42,4.42,0,0,0,1.991,2.04,4.486,4.486,0,0,0,3.376.161,4.77,4.77,0,0,0,2.374-2.2,3.056,3.056,0,0,0,.346-1.744,3.983,3.983,0,0,0-1.063-2.894A4.333,4.333,0,0,0,213.567-253.841Zm2.3,2.164a2.389,2.389,0,0,1-.26,4.155,2.668,2.668,0,0,1-1.929.111,3,3,0,0,1-1.348-1.311,2.564,2.564,0,0,1,.594-2.721A2.436,2.436,0,0,1,215.867-251.677Z" transform="translate(-184.371 -221.433)"/><path class="a" d="M135.713-210.946a3.576,3.576,0,0,0-2.3,2.312,3.3,3.3,0,0,0,3.277,4.254,3.337,3.337,0,0,0,2.906-4.8A3.408,3.408,0,0,0,135.713-210.946Zm1.608,1.929a1.514,1.514,0,0,1,.742,1.385,1.421,1.421,0,0,1-1.546,1.4,1.558,1.558,0,0,1-1.373-1.3,1.066,1.066,0,0,1,.223-.927A1.435,1.435,0,0,1,137.32-209.017Z" transform="translate(-116.83 -259.01)"/><path class="a" d="M323.668-178.778a1.212,1.212,0,0,0-.668.878,1.146,1.146,0,0,0,.26.532c.235.3.322.322,1.3.322.878,0,1.076-.037,1.286-.247a.886.886,0,0,0-.383-1.472A3.527,3.527,0,0,0,323.668-178.778Z" transform="translate(-283.095 -287.209)"/><path class="a" d="M254.178-164.808a2.969,2.969,0,0,0-1.521,1.162,2.977,2.977,0,0,0-.247,3.376,3.239,3.239,0,0,0,4.4,1.4,3.7,3.7,0,0,0,1.558-1.979,3.015,3.015,0,0,0-.322-2.51A3.222,3.222,0,0,0,254.178-164.808Zm1.768,1.855a1.54,1.54,0,0,1,.569.643.937.937,0,0,1,.049.952,1.355,1.355,0,0,1-2.226.631A1.383,1.383,0,0,1,255.947-162.953Z" transform="translate(-220.877 -299.386)"/><path class="a" d="M203.309-153.691a1.018,1.018,0,0,0-.309.618,1.019,1.019,0,0,0,.309.618c.247.26.42.309,1.026.309.866,0,1.224-.223,1.336-.829a.64.64,0,0,0-.235-.7c-.272-.272-.433-.322-1.076-.322S203.556-153.951,203.309-153.691Z" transform="translate(-177.934 -309.019)"/></g></svg>