<svg fill='#9ba29b' xmlns="http://www.w3.org/2000/svg" width="63.875" height="62.616" viewBox="0 0 63.875 62.616"><g transform="translate(0.344 506.925)"><path class="a" d="M-709.171-946.512a27.122,27.122,0,0,1-5.447-1.954,3.438,3.438,0,0,1-1.444-2.569,3.509,3.509,0,0,1,1.018-2.83,3.463,3.463,0,0,1,2.028-.985,1.1,1.1,0,0,0,.331-.067s0-.012.006-.023c.061-.294.334-2.8.383-3.479a30.247,30.247,0,0,1-4.635-3.395,10.93,10.93,0,0,0-.846-.726c-.216.074-.764.284-1.432.562l-1.308.538-.055.491a3.3,3.3,0,0,1-2.325,2.887l-.005,0a5.762,5.762,0,0,1-.923.2,4.092,4.092,0,0,1-2.168-.894,11.6,11.6,0,0,1-2.19-3.248,3.222,3.222,0,0,1,.515-2.845,3.26,3.26,0,0,1,2.632-1.28,3.955,3.955,0,0,1,1.266.2l.235.1.957-1.086.977-1.1-.343-.667a4.844,4.844,0,0,1-.45-1.353,1.179,1.179,0,0,1,1.19-1.166,1.12,1.12,0,0,1,.756.287,6.591,6.591,0,0,1,.944,1.63,3.675,3.675,0,0,1,.495,1.726c-.094.363-.48.906-2.516,3.165-.925,1.035-1.4,1.468-1.914,1.468a1.433,1.433,0,0,1-.9-.44l0,0a1.091,1.091,0,0,0-.7-.325.758.758,0,0,0-.584.307c-.3.352-.347.618.4,1.688.715,1.018,1.056,1.362,1.347,1.362a.992.992,0,0,0,.423-.135c.371-.194.526-.369.339-1.132-.141-.6-.169-.841.064-1.2.06-.091.239-.358,2.663-1.354a15.827,15.827,0,0,1,2.956-.984c.521,0,.781.2,1.765,1.133a22.435,22.435,0,0,0,4.127,3.139,6.1,6.1,0,0,1,1.578,1.222c.225.387.2.732-.061,3.209l-.025.239a19.586,19.586,0,0,1-.429,3.016,1,1,0,0,1-1.081.834c-.161,0-.342-.015-.551-.033l-.819-.068-.346.346c-.32.32-.346.405-.346.741,0,.617.2.888,2.608,1.745a9.62,9.62,0,0,0,2.152.617c.122,0,.134-.019.149-.056a8.9,8.9,0,0,0,.131-.918c.09-.868-.049-1.062-.654-1.369a1.371,1.371,0,0,1-.905-1.219c0-.09,0-.192.5-1.044.271-.464.643-1.069,1.049-1.706a29.01,29.01,0,0,1,1.912-2.75,1.217,1.217,0,0,1,.987-.384,21.237,21.237,0,0,1,2.262.246,16.492,16.492,0,0,0,1.849.084,24.736,24.736,0,0,0,3.987-.278,11.141,11.141,0,0,1,2.058-.291,1.365,1.365,0,0,1,.653.122,22.149,22.149,0,0,1,1.97,2.5c1.625,2.281,2.063,2.894,1.3,3.564-.889.774-.986.9-.986,1.073a.789.789,0,0,0,.653.627,11.847,11.847,0,0,0,2.173-.749,12.792,12.792,0,0,0,2.074-.977.543.543,0,0,0,0-.8.579.579,0,0,0-.492-.269,1.857,1.857,0,0,0-.644.157,2.4,2.4,0,0,1-.866.2,1.034,1.034,0,0,1-.916-.484,22.315,22.315,0,0,1-.676-3.134c-.391-2.435-.441-2.863-.247-3.256a5.781,5.781,0,0,1,1.451-1.27,21.838,21.838,0,0,0,3.437-2.776c.883-.859,1.21-1.109,1.665-1.109a16.687,16.687,0,0,1,3.705,1.454c-.26-.259-.566-.612-.954-1.072-1.33-1.584-1.567-1.906-1.567-2.419a11.113,11.113,0,0,1,.834-2.038c.461-.947.927-2,1.061-2.388l.012-.031c.225-.626.374-1.039.978-1.259a13,13,0,0,1,3.064-.31l3.01-.142.387.371a1.3,1.3,0,0,1,.4,1.172c0,.446.056.588.159.69a.74.74,0,0,0,.517.245.659.659,0,0,0,.55-.352,17.692,17.692,0,0,0,.529-2.3c.39-2,.366-2.033.239-2.231-.248-.377-.463-.377-.533-.377a.769.769,0,0,0-.331.089,1.2,1.2,0,0,0-.512,1.091,1.432,1.432,0,0,1-1.153,1.129,17.327,17.327,0,0,1-2.914-1.126,17.8,17.8,0,0,1-2.782-1.453c-.4-.412-.428-.619-.428-1.591a25.585,25.585,0,0,0-.549-5.017c-.439-1.953-.378-2.083,1.618-3.466,1.021-.706,1.554-1.038,2.025-1.038a1.422,1.422,0,0,1,.994.555,1.4,1.4,0,0,0,.951.508.9.9,0,0,0,.417-.107c.642-.33.822-.761.19-2.447-.513-1.375-.792-1.512-1.352-1.512a.9.9,0,0,0-.729.284c-.192.167-.239.221-.265.3a3.443,3.443,0,0,0-.041.769c0,.694-.044,1.092-.282,1.333-.173.183-.564.319-2.178.547a13,13,0,0,1-1.664.182c-.97,0-1.252-.477-1.814-1.427-.6-1.028-.973-1.8-.224-2.392a1.307,1.307,0,0,1,.807-.326c.626,0,1.048.617,1.31,1.082.278.5.346.537.606.537a4.933,4.933,0,0,0,.693-.08,1.027,1.027,0,0,0,.222-.054,1.553,1.553,0,0,0,.061-.268,3.586,3.586,0,0,1,2.827-2.929,3.316,3.316,0,0,1,.544-.043,4.122,4.122,0,0,1,1.81.417c.867.447,1.39,1.175,2,2.783.849,2.285.73,3.475-.472,4.717a3.284,3.284,0,0,1-2.4,1.086,3.981,3.981,0,0,1-1.749-.444l-.525-.248-.562.365a2.434,2.434,0,0,0-.489.388,29.3,29.3,0,0,1,.623,4.592l.076,1.382,2.738,1.2.106-.207a3.631,3.631,0,0,1,1.981-1.537,2.415,2.415,0,0,1,.643-.08,3.682,3.682,0,0,1,1.927.564A3.249,3.249,0,0,1-669.537-976a28.325,28.325,0,0,1-1,5.62,3.367,3.367,0,0,1-2.93,1.855,2.507,2.507,0,0,1-.372-.028,3.289,3.289,0,0,1-2.529-2.147l-.076-.229-1.5.05a6.418,6.418,0,0,0-1.6.137c-.144.059-.188.148-.349.578-.017.047-.036.1-.056.148l0,.007c-.188.459-.562,1.289-.839,1.828l-.381.752.568.689a3.774,3.774,0,0,0,.628.671l.007,0a4.165,4.165,0,0,1,1.283-.207,3.463,3.463,0,0,1,2.828,1.393,3.186,3.186,0,0,1,.651,2.326,3.909,3.909,0,0,1-1.219,2.633,3.849,3.849,0,0,1-2.985,1.57,3.5,3.5,0,0,1-.922-.126,3.753,3.753,0,0,1-2.555-2.98l-.063-.428-.886-.391-.867-.388-.683.662a22.5,22.5,0,0,1-3.358,2.689l-.006,0a2.173,2.173,0,0,0-.394.274c.027.238.121.9.247,1.666l.222,1.329.094-.017a1.516,1.516,0,0,1,.266-.02,3.612,3.612,0,0,1,.8.1,3.187,3.187,0,0,1,2.309,2.209,3.1,3.1,0,0,1-.807,3c-.547.548-.874.719-2.911,1.529a9.673,9.673,0,0,1-3.168.908,2.64,2.64,0,0,1-1.148-.271,3.367,3.367,0,0,1-1.832-2.846,3.436,3.436,0,0,1,.728-1.94.643.643,0,0,0,.116-.141c-.233-.413-1.374-2.1-1.791-2.632-.186.014-.574.07-1.047.161a26.023,26.023,0,0,1-4.483.332,20.121,20.121,0,0,1-2.539-.131,8.7,8.7,0,0,0-1.066-.11,1.037,1.037,0,0,0-.131.007c-.12.157-.565.815-1.081,1.634l-.859,1.353.13.124c.89.812,1.185,2.207.831,3.928a2.715,2.715,0,0,1-2.662,2.363C-709-946.5-709.087-946.5-709.171-946.512Zm28.752-15.768a1.442,1.442,0,0,0,.305,1.144.94.94,0,0,0,.719.324,1.262,1.262,0,0,0,.52-.121,3.518,3.518,0,0,0,1.247-1.768,1.138,1.138,0,0,0-.3-.818,1,1,0,0,0-.724-.289,1.543,1.543,0,0,0-.847.281,1.4,1.4,0,0,1-.766.3.849.849,0,0,1-.292-.051A1.35,1.35,0,0,1-680.419-962.28Zm-21.376.571a3.267,3.267,0,0,1,.276-3.7,3.266,3.266,0,0,1,1.66-1.263,3.469,3.469,0,0,1,1.166-.2,3.542,3.542,0,0,1,3.064,1.783,3.328,3.328,0,0,1,.349,2.743,3.983,3.983,0,0,1-1.712,2.163,3.564,3.564,0,0,1-1.653.407A3.548,3.548,0,0,1-701.795-961.709Zm2.123-2a1.053,1.053,0,0,0,.281,1.193.993.993,0,0,0,.691.285,1.135,1.135,0,0,0,1.043-.8.664.664,0,0,0-.036-.723,1.268,1.268,0,0,0-.433-.506,1.208,1.208,0,0,0-.554-.145A1.094,1.094,0,0,0-699.672-963.714Zm-8.226.261a1.3,1.3,0,0,1-.4-.832,1.3,1.3,0,0,1,.4-.832c.325-.338.6-.4,1.263-.4.68,0,.932.053,1.288.409a.928.928,0,0,1,.317.974c-.173.944-.921,1.072-1.63,1.072C-707.3-963.057-707.573-963.114-707.9-963.453Zm-8.311-3.282a3.591,3.591,0,0,1-.559-3.184,3.9,3.9,0,0,1,2.5-2.516,3.238,3.238,0,0,1,.926-.133h0a3.774,3.774,0,0,1,3.315,2.055,3.6,3.6,0,0,1-.185,3.525,3.512,3.512,0,0,1-2.989,1.706A3.708,3.708,0,0,1-716.208-966.735Zm1.931-2.759,0,0a.779.779,0,0,0-.172.707l0,.009a1.269,1.269,0,0,0,1.075,1.037,1.127,1.127,0,0,0,1.246-1.1,1.217,1.217,0,0,0-.579-1.118,1.274,1.274,0,0,0-.576-.149A1.207,1.207,0,0,0-714.277-969.494Zm21.145,2.911a1.38,1.38,0,0,1-.324-.718,1.486,1.486,0,0,1,.859-1.158,2.938,2.938,0,0,1,.951-.13,3.385,3.385,0,0,1,1.049.14,1.245,1.245,0,0,1,.814.893,1.158,1.158,0,0,1-.318,1.074c-.308.308-.636.335-1.5.335C-692.58-966.148-692.8-966.163-693.132-966.583Zm-11.76-2.615a4.746,4.746,0,0,1-2.126-2.18,5.284,5.284,0,0,1-.05-3.752,5.053,5.053,0,0,1,3.133-2.627,4.287,4.287,0,0,1,.988-.113,4.617,4.617,0,0,1,3.451,1.531,4.3,4.3,0,0,1,1.137,3.091,3.325,3.325,0,0,1-.378,1.877,5.049,5.049,0,0,1-2.537,2.348,4.458,4.458,0,0,1-1.587.274A4.54,4.54,0,0,1-704.893-969.2Zm.591-5.651a2.274,2.274,0,0,0-.525,2.385,2.716,2.716,0,0,0,1.175,1.148,2.009,2.009,0,0,0,.7.112,2.247,2.247,0,0,0,.99-.208,2.116,2.116,0,0,0,1.185-1.775,2.076,2.076,0,0,0-.952-1.863,2.06,2.06,0,0,0-1.152-.338A2.062,2.062,0,0,0-704.3-974.849Zm11.018.831a3.646,3.646,0,0,1,2.04-4.337,3.514,3.514,0,0,1,1.438-.264h.015a3.551,3.551,0,0,1,3.267,2.077,3.578,3.578,0,0,1-.557,3.859,3.484,3.484,0,0,1-2.693,1.227A3.6,3.6,0,0,1-693.284-974.019Zm2.439-1.5a1.136,1.136,0,0,0,.049,1.1,1.072,1.072,0,0,0,.928.5,1.135,1.135,0,0,0,1.094-.594,1.12,1.12,0,0,0-.441-1.5,1.314,1.314,0,0,0-.61-.156A1.1,1.1,0,0,0-690.845-975.521Zm-32.406,2.613a3.585,3.585,0,0,1-.626-1.87c-.464-.127-2.372-.583-3.034-.726-.007.025-.014.054-.023.086a3.371,3.371,0,0,1-3.133,2.271h-.055a3.342,3.342,0,0,1-3.143-2.346,21.86,21.86,0,0,1,.063-5.461,3.269,3.269,0,0,1,3.154-2.373,3.39,3.39,0,0,1,1.52.362,3.766,3.766,0,0,1,1.456,1.387c.627-.082,2.658-.518,3.158-.68.038-.164.11-.508.2-1v-.005a24.815,24.815,0,0,1,1.781-5.23l.5-1.02-1.128-1.286-.323.154a3.7,3.7,0,0,1-1.257.26,2.983,2.983,0,0,1-2.375-1.173,3,3,0,0,1-.537-2.6,13.037,13.037,0,0,1,2.88-3.944,2.353,2.353,0,0,1,1.64-.361,2.294,2.294,0,0,1,1.7.41,3.255,3.255,0,0,1,1.352,2.326l.067.547.818.352.784.331.8-.745a23.264,23.264,0,0,1,3.228-2.541l.708-.465-.431-3.016h-.432a3.011,3.011,0,0,1-2.353-1.08,3.08,3.08,0,0,1-.3-3.664c.5-.854,1.109-1.155,3.5-2.069a9.605,9.605,0,0,1,3.043-.84,2.524,2.524,0,0,1,1.123.267,3.059,3.059,0,0,1,1.719,2.039,3.272,3.272,0,0,1-.58,2.792l0,0-.172.22.787,1.116c.259.366.838,1.187,1,1.429l.059,0a7.611,7.611,0,0,0,.991-.12c.692-.115,1.751-.25,2.359-.3l.917-.071.172-.506.189-.541-.389-.437a3.679,3.679,0,0,1-.875-3.359,3.744,3.744,0,0,1,2.4-2.587,3.932,3.932,0,0,1,1.225-.147,9.239,9.239,0,0,1,2.3.275,3.632,3.632,0,0,1,2.557,2.651,3.687,3.687,0,0,1-1.113,3.568l-.46.42.137,1.354.806.229a23.691,23.691,0,0,1,3.912,1.529l.68.346,1.085-.879c.261-.209.508-.409.721-.58.271-.218.435-.35.535-.428a2.844,2.844,0,0,0-.2-.445,3.066,3.066,0,0,1,.015-3.1,3.1,3.1,0,0,1,2.65-1.527,3.255,3.255,0,0,1,1.436.344,19.555,19.555,0,0,1,2.408,1.731,7.74,7.74,0,0,1,2.094,2.063,3.189,3.189,0,0,1-.689,3.765,3.279,3.279,0,0,1-2.319.79l-.539.01-.639,1.409a12.857,12.857,0,0,0-.577,1.347c-.042.144-.034.156.005.211a1.353,1.353,0,0,1-.013,1.522.983.983,0,0,1-.826.419,1.754,1.754,0,0,1-1.2-.581c-.94-.97-.83-1.312.462-4.131.437-.952,1.193-2.54,1.364-2.749l.015-.017a1.167,1.167,0,0,1,.848-.311,1.291,1.291,0,0,1,.787.243.868.868,0,0,0,.478.118.82.82,0,0,0,.537-.153.982.982,0,0,0,.118-.81c-.113-.113-.788-.69-1.749-1.451-1.156-.931-1.693-1.318-2.028-1.318a.82.82,0,0,0-.29.066,1.011,1.011,0,0,0-.313.706,3.5,3.5,0,0,0,.609.71c.451.425.728.769.72,1.176s-.322.774-.826,1.211a29.7,29.7,0,0,1-4.272,3.245.863.863,0,0,1-.189.02,5.138,5.138,0,0,1-1.876-.7,20.006,20.006,0,0,0-4.012-1.55c-1.136-.29-1.534-.447-1.809-.869a8.053,8.053,0,0,1-.448-2.117,6.661,6.661,0,0,1-.044-2.128,2.037,2.037,0,0,1,.857-.726,1.371,1.371,0,0,0,.8-.878,1.168,1.168,0,0,0-.305-.988c-.281-.333-.674-.52-1.939-.546l-.857-.021-.338.357a1.15,1.15,0,0,0-.344.939,1.4,1.4,0,0,0,.746.937c.46.267.817.512.872,1.006a4.919,4.919,0,0,1-.458,1.886l-.005.016a4.73,4.73,0,0,1-1,2.029c-.416.354-.96.386-1.948.443-.8.047-1.962.178-2.6.292a13.376,13.376,0,0,1-1.853.275,1.056,1.056,0,0,1-.68-.221,20.671,20.671,0,0,1-1.97-2.526,15.329,15.329,0,0,1-1.475-2.36.917.917,0,0,1,.265-1.192c.875-.772.971-.9.971-1.071a.8.8,0,0,0-.653-.627,20.079,20.079,0,0,0-4.241,1.694.528.528,0,0,0,.023.821l.007.006a.61.61,0,0,0,.476.209,2.073,2.073,0,0,0,.709-.169,2.1,2.1,0,0,1,.736-.153,1.064,1.064,0,0,1,.949.509,21.409,21.409,0,0,1,.636,3.181c.026.182.051.351.075.511a6.931,6.931,0,0,1,.152,2.542c-.16.551-.571.815-1.318,1.293l-.278.179a26.775,26.775,0,0,0-3.761,3.039,2.1,2.1,0,0,1-1.522.929,24.33,24.33,0,0,1-4.192-1.728c-.423-.263-.423-.551-.373-.993a7.477,7.477,0,0,1,.158-.873.437.437,0,0,0-.1-.366.609.609,0,0,0-.465-.244c-.286,0-.418.065-1.5,1.524-.806,1.087-.731,1.316-.511,1.562a.4.4,0,0,0,.309.153,1.207,1.207,0,0,0,.758-.419,1.577,1.577,0,0,1,1-.555c.517,0,.957.457,1.993,1.667,1.481,1.729,1.643,1.938,1.643,2.5a9,9,0,0,1-.76,2,19.267,19.267,0,0,0-1.769,5.2c-.288,1.455-.527,2.181-1.1,2.367l-.006,0c-.131.04-1.4.351-2.825.685a15.744,15.744,0,0,1-2.75.524.955.955,0,0,1-.336-.05,1.344,1.344,0,0,1-.82-1.237,1.38,1.38,0,0,0-.253-.426c-.2-.239-.291-.274-.523-.274-.517,0-.658.12-.763.371a7.591,7.591,0,0,0-.211,2.359c0,2.206.119,2.336.572,2.485a1,1,0,0,0,.311.053c.51,0,.867-.469.867-1.141a1.308,1.308,0,0,1,.4-1.113,1.2,1.2,0,0,1,.7-.4c.059,0,.167,0,2.948.626l.187.043a9.4,9.4,0,0,1,2.775.85c.516.354.607.842.76,1.653l.019.1a3.391,3.391,0,0,1,.1,1.645,1.176,1.176,0,0,1-1.111.746A1.187,1.187,0,0,1-723.251-972.908Zm7.96-3.689c-.714,0-.933-.044-1.289-.448a1.469,1.469,0,0,1-.372-.754,1.521,1.521,0,0,1,.848-1.178,1.935,1.935,0,0,1,.665-.092,3.291,3.291,0,0,1,.361.019,1.472,1.472,0,0,1,1.093.464l.011.012a1.024,1.024,0,0,1-.026,1.527c-.343.392-.563.437-1.285.451Zm18.355-3.037a1.187,1.187,0,0,1-.351-.851,1.224,1.224,0,0,1,.332-.89c.288-.289.608-.336,1.263-.336s.975.047,1.264.336a1.251,1.251,0,0,1,.031,1.653c-.3.371-.572.4-1.269.4A1.685,1.685,0,0,1-696.936-979.634Zm-13.977-.234A6.189,6.189,0,0,1-715-982.883c-1.222-2.419-.747-5.338,1.273-7.807a9.358,9.358,0,0,1,4.7-2.812,7.62,7.62,0,0,1,1.619-.177,6.42,6.42,0,0,1,4.052,1.384,5.851,5.851,0,0,1,2.1,3.689,7.1,7.1,0,0,1-.82,4.337c-.361.713-.77,1.058-1.248,1.058a1.318,1.318,0,0,1-.812-.327c-.634-.5-.477-1.179-.047-2.04a4.254,4.254,0,0,0,.234-3.568,3.307,3.307,0,0,0-2.118-1.872,5.41,5.41,0,0,0-1.248-.234,6.182,6.182,0,0,0-5.825,4.942,3.454,3.454,0,0,0,2.453,3.978,4.39,4.39,0,0,0,1.126.131,5.823,5.823,0,0,0,1.907-.309,8.736,8.736,0,0,1,1.317-.4,1.225,1.225,0,0,1,.2-.016,1.032,1.032,0,0,1,1,.758,1.292,1.292,0,0,1-.545,1.449,7.948,7.948,0,0,1-3.956.961A6.3,6.3,0,0,1-710.913-979.868Zm17.2-6.017a3.659,3.659,0,0,1-2.342-3.378,3.583,3.583,0,0,1,.92-2.368,4.293,4.293,0,0,1,2.324-1.327,4.208,4.208,0,0,1,.878-.088,5.071,5.071,0,0,1,2.793.828,3.522,3.522,0,0,1,1.562,3.327,3.532,3.532,0,0,1-1.409,2.476,4.609,4.609,0,0,1-2.812.936A4.656,4.656,0,0,1-693.712-985.885Zm.113-3.378a.8.8,0,0,0,.332.752,2.305,2.305,0,0,0,1.517.589,1.411,1.411,0,0,0,.286-.027,1.7,1.7,0,0,0,1.457-1.2,1.118,1.118,0,0,0-.677-1.122,2.4,2.4,0,0,0-1.164-.3C-692.708-990.574-693.6-990.084-693.6-989.263Zm-6.756-3.991a1.3,1.3,0,0,1-.4-.832,1.3,1.3,0,0,1,.4-.832c.352-.365.629-.4,1.386-.4s1.036.031,1.388.4a1.212,1.212,0,0,1,.4.924,1.1,1.1,0,0,1-.434.808,1.922,1.922,0,0,1-1.373.325C-699.732-992.858-700-992.889-700.355-993.254Z" transform="translate(733.061 502.192)"/></g></svg>