<svg fill='#9ba29b' xmlns="http://www.w3.org/2000/svg" width="37.02" height="37" viewBox="0 0 37.02 37"><path class="a" d="M37.833-479.56a7.616,7.616,0,0,0-2.439.943,6.912,6.912,0,0,0-3.043,4.035l-.182.6L32.144-461.5c-.017,8.591.008,12.667.066,13.064a6.934,6.934,0,0,0,5.747,5.747c.4.058,4.44.083,12.982.066l12.4-.025.628-.182a7,7,0,0,0,4.969-4.837l.19-.6.025-12.485c.017-8.591-.008-12.667-.066-13.064a7,7,0,0,0-2.844-4.581,7.241,7.241,0,0,0-2.142-1.025l-.6-.182L50.9-479.618C43.588-479.626,38.1-479.6,37.833-479.56Zm25.459,2.679a4.243,4.243,0,0,1,3.109,3.109c.107.455.124,1.819.124,9.749v9.211l-3.117-3.109c-3.382-3.365-3.307-3.307-4.052-3.167-.273.05-.695.43-3.25,2.985l-2.935,2.927-5.912-5.9c-5.234-5.234-5.945-5.912-6.218-5.962-.752-.141-.719-.165-3.6,2.712l-2.671,2.663v-5.788c0-6.375,0-6.383.513-7.342a4.443,4.443,0,0,1,2.737-2.092c.339-.083,3.076-.1,12.585-.107C61.175-477,62.829-476.988,63.292-476.881ZM50.07-454.556l9.3,9.3H48.954c-11.477,0-10.972.017-11.973-.513a4.757,4.757,0,0,1-1.7-1.7c-.5-.934-.513-1.091-.513-6.02v-4.465l2.952-2.952c1.629-1.629,2.977-2.96,3-2.96S44.952-459.674,50.07-454.556Zm13.039.058,3.415,3.415v1.009a4.812,4.812,0,0,1-.455,2.464,4.252,4.252,0,0,1-2.547,2.158l-.48.149-4-4-4.01-4.01,2.29-2.29c1.265-1.265,2.315-2.3,2.34-2.3S61.241-456.366,63.11-454.5Z" transform="translate(-32.139 479.619)"/><path class="a" d="M307.947-415.539a4.687,4.687,0,0,0-3.7,3.886,4.63,4.63,0,0,0,4.945,5.275,4.658,4.658,0,0,0,4.052-3.283,3.875,3.875,0,0,0,.157-1.323,3.874,3.874,0,0,0-.157-1.323,4.552,4.552,0,0,0-4.225-3.266A6.676,6.676,0,0,0,307.947-415.539Zm1.48,2.671a2.191,2.191,0,0,1,1.373,1.885A2.083,2.083,0,0,1,308.815-409a1.809,1.809,0,0,1-1.364-.62,1.788,1.788,0,0,1,0-2.729A1.826,1.826,0,0,1,309.427-412.868Z" transform="translate(-281.706 420.874)"/></svg>