<svg xmlns="http://www.w3.org/2000/svg" width="49.435" height="52.762" viewBox="0 0 49.435 52.762"><defs><style>.a{fill:#5cca55;}</style></defs><g transform="translate(-83.278 438.75)"><path class="a" d="M91.2-438.585c-.588.287-.732.416-1.809,1.665a25.636,25.636,0,0,0-5.5,11.11,25.922,25.922,0,0,0,5.2,22c.459.545.89,1.077.99,1.206.129.158.086.646-.244,2.282-.531,2.584-.56,3.431-.1,3.832a1.192,1.192,0,0,0,1.45.273c.632-.258.732-.488,1.019-2.311a38.013,38.013,0,0,1,7.765-17.3,46.374,46.374,0,0,1,6.588-6.4,37.873,37.873,0,0,1,20.224-7.665c2.124-.158,2.469-.129,2.584.258a54.82,54.82,0,0,1,.675,6.445,59.011,59.011,0,0,1-.359,9.732c-.933,7.033-5.6,14.024-12.057,18.071a26.585,26.585,0,0,1-15.9,3.976,17.494,17.494,0,0,1-4.277-.718A16.916,16.916,0,0,1,99-393.285a61.841,61.841,0,0,0,16.923-18.287c.876-1.493.962-2.053.4-2.6a1.429,1.429,0,0,0-1.765-.115,14.317,14.317,0,0,0-1.263,1.837,59.327,59.327,0,0,1-27.071,23.253c-1.737.732-2.081.947-2.282,1.493a1.341,1.341,0,0,0,1.435,1.694,63.76,63.76,0,0,0,8.139-3.789l.7-.431.789.273c.416.144,1.521.416,2.44.617a29.366,29.366,0,0,0,21.545-3.746,29.282,29.282,0,0,0,12.9-17.784c.933-3.947,1.091-11.6.344-17.368-.273-2.124-.416-2.641-.933-3.287-.9-1.091-1.952-1.263-5.584-.947a40.583,40.583,0,0,0-20.626,7.923,8.753,8.753,0,0,1-1.478,1,25.57,25.57,0,0,0-.89-4.048,19.766,19.766,0,0,0-8.225-10.593,2.924,2.924,0,0,0-1.866-.56A3.435,3.435,0,0,0,91.2-438.585Zm2.44,3.057a19.959,19.959,0,0,1,4.608,4.708,17.282,17.282,0,0,1,2.785,8.885v.832l-1.292,1.364c-.718.761-1.866,2.124-2.555,3.029l-1.249,1.651-.1-2.067a58.187,58.187,0,0,0-1.421-9.631,1.342,1.342,0,0,0-1.349-.976,1.576,1.576,0,0,0-1.22,1.177c0,.187.187,1.292.416,2.483a42.19,42.19,0,0,1,.947,9.9v3.876l-.56,1.22c-.316.675-.775,1.766-1.019,2.426l-.459,1.191-.646-.833a23.333,23.333,0,0,1-4.593-12.071,23.034,23.034,0,0,1,3.732-14.483,14.965,14.965,0,0,1,2.8-3.359A5.411,5.411,0,0,1,93.645-435.528Z" transform="translate(0)"/></g></svg>