<svg xmlns="http://www.w3.org/2000/svg" width="91.422" height="91.422" viewBox="0 0 91.422 91.422"><defs><style>.a{fill:#5cca55;}</style></defs><g transform="translate(33.463) rotate(30)"><path class="a" d="M43.765.387a1.223,1.223,0,0,0-.232,1.472,15.1,15.1,0,0,0,2.618,1.58L48.63,4.725,49.5,7.018l.883,2.308L49.358,10.38a8.115,8.115,0,0,0-2.231,4.353,9.987,9.987,0,0,0,.465,5.05l.372,1.1-.837.651-.837.666-.837-.837a8.4,8.4,0,0,1-2.246-4.477c-.248-1.627-.852-2.169-1.89-1.689-.6.279-.744.775-.573,1.967A10.2,10.2,0,0,0,43.7,23.114a4.726,4.726,0,0,1,1.084,1.332,3.425,3.425,0,0,1-1.1.325,13.18,13.18,0,0,0-1.983.589c-1.1.434-1.193.4-2.184-.589a5.747,5.747,0,0,1-1.58-2.9c-.325-1.317-.666-1.735-1.41-1.735a1.324,1.324,0,0,0-1.208,1.193,8.694,8.694,0,0,0,2.308,5.035l.837.914-.356.372c-.31.341-.418.356-1.456.279a7.965,7.965,0,0,0-2.324.17c-1.41.325-1.5.279-2.045-.914a3.845,3.845,0,0,1-.108-2.974c.248-.806.248-.837-.046-1.239a1.28,1.28,0,0,0-1.518-.511c-.945.356-1.472,2.943-.961,4.679a7.637,7.637,0,0,1,.248,1.022c0,.077-.465.186-1.053.232a12.6,12.6,0,0,0-1.875.356,2.358,2.358,0,0,1-.914.139,7.2,7.2,0,0,1-.108-1.673,7.215,7.215,0,0,1,.372-2.7c.356-1.069.356-1.131.108-1.518a1.191,1.191,0,0,0-1.58-.5c-1.1.527-1.813,4.229-1.255,6.584.17.713.186.991.046,1.038-.093.031-.7.17-1.348.31a13.56,13.56,0,0,0-2.448.852c-1.472.713-1.472.713-1.7-.992a7.623,7.623,0,0,1,.356-3.486,3.993,3.993,0,0,0,.248-1.1,1.231,1.231,0,0,0-2-.79,7.025,7.025,0,0,0-1.1,3.222,9.764,9.764,0,0,0,.558,4.524c.418,1.115.418,1.115.108,1.456a12.258,12.258,0,0,0-.79,1.054,2.443,2.443,0,0,1-.976.9c-.666.232-.666.232-1.239-.248a3.373,3.373,0,0,1-1.069-2.851c0-1.022-.046-1.208-.356-1.5a1.31,1.31,0,0,0-1.673-.046c-.341.279-.372.4-.372,1.906a4.194,4.194,0,0,0,.449,2.494,7,7,0,0,0,1.038,1.534l.6.635-.465.945A9.054,9.054,0,0,0,10.8,40.93c-.17.96-.232,1.069-.868,1.534l-.7.5-.356-.449a4.871,4.871,0,0,1-.821-4.2c.186-.775.186-.868-.108-1.255a1.315,1.315,0,0,0-1.766-.248c-.511.449-.806,1.813-.728,3.3a6.351,6.351,0,0,0,1.673,4.105l.651.713-.341.806A6.467,6.467,0,0,0,7,47.716c-.062,1.162-.232,1.7-.48,1.7a4.056,4.056,0,0,1-.9-.589,5.59,5.59,0,0,1-1.89-3.455c-.093-.713-.217-1.038-.48-1.255A1.246,1.246,0,0,0,1.239,45.19a8.521,8.521,0,0,0,.868,3.176,9.11,9.11,0,0,0,2.68,2.928l.682.434.015,2.107L5.5,55.927l-.465-.093a4.376,4.376,0,0,1-2.417-1.627A3.933,3.933,0,0,0,1.27,53.138,1.608,1.608,0,0,0,0,54.377c0,.635.9,1.828,1.983,2.665a6.662,6.662,0,0,0,3.889,1.363c.852,0,.883.016,1.549.79l.666.775-.434.62a12.387,12.387,0,0,1-1.983,1.8A15.336,15.336,0,0,0,3.92,63.8a1.258,1.258,0,0,0,1.007,1.89c.868,0,4.26-2.773,5.066-4.152.186-.294.387-.465.542-.434.124.047.511.108.852.17.62.093.635.108.914,1.1.558,1.921,2.665,4.555,3.656,4.555A1.306,1.306,0,0,0,17.2,65.7c0-.356-.232-.728-.961-1.518a6.2,6.2,0,0,1-1.673-2.912c0-.248.232-.434.9-.728a9.243,9.243,0,0,0,1.534-.96,3.2,3.2,0,0,1,.744-.558,3.575,3.575,0,0,1,.713.511,8.172,8.172,0,0,0,3.486,1.611c1.115.248,1.162.248,1.58-.062a1.073,1.073,0,0,0,.465-.914c.062-.868-.2-1.131-1.41-1.394a5.46,5.46,0,0,1-2.8-1.332l-.6-.527.294-.837a7.523,7.523,0,0,0,.294-2.572V51.79l.775.7a7.566,7.566,0,0,0,3.749,1.735c1.239.2,1.751.062,2.138-.527a1.167,1.167,0,0,0-.279-1.549,3.438,3.438,0,0,0-1.193-.31,4.765,4.765,0,0,1-3.1-1.6c-.744-.806-.759-.868-.682-1.565.077-.62.217-.837.852-1.425a7.725,7.725,0,0,0,1.131-1.363l.372-.682.48.7a6.45,6.45,0,0,0,4.276,2.711c.728.062.837.031,1.131-.356.7-.883.232-1.72-1.193-2.169a4.827,4.827,0,0,1-2.525-2.138,2.181,2.181,0,0,1-.248-.635,9.435,9.435,0,0,0,1.751-1.441c.465-.511.48-.527,1.425-.418l.961.108.263.868a15.906,15.906,0,0,0,2.82,5.314,1.224,1.224,0,0,0,2.138-.589c.077-.31-.031-.589-.511-1.27a16.416,16.416,0,0,1-1.921-3.734,4.868,4.868,0,0,1-.263-.868c.031-.015.511-.217,1.084-.449l1.038-.434.868.325a4.864,4.864,0,0,0,1.162.325c.217,0,.449.341.9,1.3,1.3,2.773,3.594,4.415,4.508,3.253a1.2,1.2,0,0,0-.17-1.782,2.416,2.416,0,0,0-.62-.449,8.159,8.159,0,0,1-1.518-2.091c0-.108.527-.372,1.162-.6l1.162-.418L42.8,41.395a9.994,9.994,0,0,0,4.214,2.634c1.394.434,2,.434,2.432,0a1.407,1.407,0,0,0,.139-1.642,4.016,4.016,0,0,0-1.317-.573,7.689,7.689,0,0,1-3.625-2.076c-.976-.96-1.162-1.456-.434-1.255a8.915,8.915,0,0,0,5.1-.139c.635-.217.635-.217,1.224.325a8.205,8.205,0,0,0,5.67,2.293c1.348.015,1.472-.015,1.751-.356a1.372,1.372,0,0,0-.016-1.689c-.263-.279-.5-.341-1.208-.341a6.953,6.953,0,0,1-3.47-.945c-1.162-.759-1.177-.806-.434-1.642a9.53,9.53,0,0,0,1.115-1.673c.263-.511.5-.961.527-.992a2.9,2.9,0,0,1,.713.48,10.526,10.526,0,0,0,4.849,2.076c.744.093.868.062,1.224-.294a1.21,1.21,0,0,0,.124-1.658,2.4,2.4,0,0,0-1.348-.558A10.412,10.412,0,0,1,58,32.688c-1.053-.511-2.417-1.673-2.122-1.8a8.824,8.824,0,0,0,.806-.527l.62-.449.9.542a8.23,8.23,0,0,0,4.539,1.193c3.176-.031,4.942-1.224,3.858-2.6-.387-.48-.806-.48-2.618,0a4.125,4.125,0,0,1-2.138.093c-1.131-.17-2.789-.852-2.928-1.208a.937.937,0,0,1,.139-.6c.155-.325.387-.465,1.053-.62a15.271,15.271,0,0,0,2.169-.868c2.091-1.053,4.648-3.749,4.648-4.926a1.355,1.355,0,0,0-1.3-1.084c-.5,0-.62.108-1.394,1.146a11.662,11.662,0,0,1-1.689,1.766,8.244,8.244,0,0,1-2.68,1.394,6.54,6.54,0,0,1,.7-1.348c2.479-4.121,2.4-9.047-.2-12.456l-.542-.713.945-2.51.961-2.494,2.432-1.224a13.6,13.6,0,0,0,2.618-1.518A1.294,1.294,0,0,0,65.733,0a21.228,21.228,0,0,0-3.222,1.441L59.722,2.866,58.839,5.19c-.48,1.27-.93,2.417-1.007,2.525-.093.139-.279.139-.883-.046a5.493,5.493,0,0,0-3.269.062,7.535,7.535,0,0,1-1.115.263c-.031-.031-.465-1.115-.961-2.417a18.64,18.64,0,0,0-1.131-2.572A41.9,41.9,0,0,0,44.54,0,1.276,1.276,0,0,0,43.765.387Zm13.106,9.977a7.281,7.281,0,0,1,2.99,6.212,8.3,8.3,0,0,1-1.1,4.369l-.542,1.038-.651-.434a9.378,9.378,0,0,0-5.81-1.689l-1.472.031-.263-.6a9.183,9.183,0,0,1-.465-1.689,6.3,6.3,0,0,1,2.959-6.677C54.238,9.868,55.787,9.667,56.872,10.364ZM54.129,22.618a9.128,9.128,0,0,1,1.983.992l.976.666-.046.744a4.555,4.555,0,0,1-.356,1.456,5.98,5.98,0,0,1-2.153,2.339c-.4.17-.511.108-1.8-.93a17.065,17.065,0,0,0-4.725-2.649c-.325-.108-.6-.232-.6-.294a4.093,4.093,0,0,1,.558-.744,6.571,6.571,0,0,1,2.355-1.735A8.693,8.693,0,0,1,54.129,22.618ZM46.8,27.436a14.176,14.176,0,0,1,5.081,2.974c.48.511.511.6.418,1.224a6.009,6.009,0,0,1-3.625,4.291,6.59,6.59,0,0,1-3.656.17.967.967,0,0,1-.728-.744,14.738,14.738,0,0,0-3.253-5.159,3.751,3.751,0,0,1-.837-1.069,9.267,9.267,0,0,1,2.882-1.611A5.309,5.309,0,0,1,46.8,27.436Zm-9.4,3.1a5,5,0,0,1,1.8,1.348,11.521,11.521,0,0,1,2.6,3.889l.341.837-.341.372a6.062,6.062,0,0,1-4.539,1.7A3.845,3.845,0,0,1,33.633,36.1a4.345,4.345,0,0,1-.4-2.324,4.079,4.079,0,0,1,.387-2.246c.341-.682.465-.79,1.084-.96A5.487,5.487,0,0,1,37.4,30.535Zm-6.321.635a8.933,8.933,0,0,0,.682,6.739,2.653,2.653,0,0,1,.31.666c0,.418-2.618.62-3.78.294-1.658-.465-3.346-3.191-3.346-5.407,0-1.193.093-1.332,1.177-1.8a9.127,9.127,0,0,1,3.842-.821C31.155,30.829,31.17,30.829,31.077,31.17Zm-8.614,2.4a9.955,9.955,0,0,0,2.262,5.748c.7.79.713.837.449,1.115-.837.93-3.005,1.224-4.57.635a5.261,5.261,0,0,1-3.114-3.253,1.278,1.278,0,0,1,.046-1.146,8.712,8.712,0,0,1,3.92-3.408C22.371,32.89,22.464,32.921,22.464,33.571ZM15.57,39.629a7.59,7.59,0,0,0,4.741,3.966c.775.2.837.248.806.651-.046.651-.93,1.394-2,1.7a4.484,4.484,0,0,1-5.9-3.827,3.355,3.355,0,0,1,1.069-2.912,3.238,3.238,0,0,1,.728-.635A5.3,5.3,0,0,1,15.57,39.629Zm-3.594,6.088a6.294,6.294,0,0,0,2.851,2.355,5.278,5.278,0,0,0,2.4.542,4.8,4.8,0,0,1,1.363.17,3.578,3.578,0,0,1-1.146,1.487A5.812,5.812,0,0,1,9.977,49.7a1.658,1.658,0,0,1-.527-1.487,3.894,3.894,0,0,1,.4-1.735c.4-.883,1.3-1.952,1.456-1.751C11.356,44.8,11.65,45.237,11.975,45.717ZM9.683,52.6a6.733,6.733,0,0,0,4.26,1.224,6.132,6.132,0,0,0,2.541-.341l.914-.325-.077.976a5.084,5.084,0,0,1-4.973,4.648,3.308,3.308,0,0,1-2.882-1.038,5.818,5.818,0,0,1-1.41-5.36c.186-.79.2-.806.527-.558C8.753,51.945,9.264,52.3,9.683,52.6Z" transform="translate(0 0)"/></g></svg>