<svg id="stage-svg" fill='#9ba29b' xmlns="http://www.w3.org/2000/svg" width="47.073" height="73.037" viewBox="0 0 47.073 73.037"><style>.stage-svg {cursor: pointer;}</style><path class="a" d="M112.982-511.68c-2.667.713-5.264,3.623-7.246,8.117a64.922,64.922,0,0,0-4.322,18.045c-.1.9-.214,1.969-.257,2.382l-.1.742-1-.442a19.159,19.159,0,0,0-6.248-1.555c-2.168-.185-2.81.114-2.81,1.341,0,.371.2.728.913,1.64q3.424,4.343,5.963,12.51a60.738,60.738,0,0,1,2.04,8.773c1.241,6.818,1.969,8.844,3.908,10.884a9.516,9.516,0,0,0,1.255,1.113l.585.414.057,2.6c.043,2.311.086,2.682.342,3.267a5.194,5.194,0,0,0,3.2,2.753,56.724,56.724,0,0,0,10.556,0,5.194,5.194,0,0,0,3.2-2.753c.257-.585.3-.956.342-3.267l.057-2.6.585-.414a10.591,10.591,0,0,0,2.339-2.439c1.17-1.812,1.812-3.937,2.824-9.557a60.522,60.522,0,0,1,2-8.63c1.712-5.506,3.809-9.914,6.077-12.752.656-.827.842-1.155.842-1.541,0-1.227-.642-1.526-2.81-1.341a19.159,19.159,0,0,0-6.248,1.555l-1,.442-.1-.742c-.043-.414-.157-1.484-.257-2.382a71.814,71.814,0,0,0-3.338-15.577c-1.412-3.851-2.981-6.59-4.85-8.459Q116.412-512.592,112.982-511.68Zm-1.027,4.137c-.086.228-.371,1.155-.628,2.054l-.471,1.64-.956.043-.956.043.385-.685c.9-1.541,2.568-3.723,2.739-3.566A.9.9,0,0,1,111.955-507.543Zm6.861,1.626c.285.428.7,1.084.913,1.455l.4.685h-.941c-.642,0-.97-.057-1-.185-.029-.085-.285-.941-.556-1.883s-.542-1.84-.6-2C116.9-508.242,118.16-506.872,118.816-505.917Zm-3.866.742c.157.571.3,1.127.3,1.212,0,.128-.243.185-.713.185s-.713-.057-.713-.185a9.64,9.64,0,0,1,.713-2.24A3.458,3.458,0,0,1,114.95-505.175Zm-4.693,4.351c-.014.071-.157,1.041-.328,2.182l-.328,2.068-1.669.043a10.65,10.65,0,0,1-1.669-.029c0-.1,1.312-4.137,1.384-4.265a4.825,4.825,0,0,1,1.341-.1A4.07,4.07,0,0,1,110.257-500.824Zm5.706,0c0,.071.157,1.027.342,2.14a19.027,19.027,0,0,1,.257,2.111,14.862,14.862,0,0,1-2.026.071,14.862,14.862,0,0,1-2.026-.071,19.037,19.037,0,0,1,.257-2.111c.185-1.113.342-2.068.342-2.14a5.12,5.12,0,0,1,1.426-.1A5.121,5.121,0,0,1,115.963-500.824Zm6.162,2.04c.371,1.141.67,2.125.67,2.182a6.812,6.812,0,0,1-1.655.071l-1.669-.043-.328-2.068c-.171-1.141-.314-2.125-.328-2.182a4.352,4.352,0,0,1,1.312-.071l1.312.043ZM109.2-493.05c-.043.414-.114,1.2-.157,1.754s-.114,1.213-.157,1.455l-.071.471h-1.983c-1.826,0-2-.029-2-.257,0-.371.685-3.851.785-4.023a6.374,6.374,0,0,1,1.883-.143h1.783Zm7.817-.071c.043.385.114,1.127.157,1.683s.114,1.241.157,1.526l.086.542h-5.763l.086-.542c.043-.285.114-.984.157-1.526s.114-1.3.157-1.683l.086-.67h4.793Zm6.433-.528c.1.171.785,3.652.785,4.023,0,.228-.171.257-2,.257h-1.983l-.071-.471c-.043-.242-.114-.913-.157-1.455s-.114-1.341-.157-1.754l-.086-.742h1.783A6.374,6.374,0,0,1,123.452-493.649ZM108.6-485.133c-.043.77-.1,1.74-.143,2.14l-.071.756h-2.211c-1.911,0-2.2-.029-2.2-.228,0-.414.314-3.694.357-3.88.043-.128.613-.171,2.2-.171h2.14Zm8.987-.642c.043.414.1,1.384.143,2.14l.071,1.4H111.27l.071-1.4c.043-.756.1-1.726.143-2.14l.071-.742h5.963Zm7.3.97c.1.9.171,1.854.185,2.1l.014.471h-4.408l-.071-.756c-.043-.4-.1-1.369-.143-2.14l-.071-1.4,2.168.043,2.168.043Zm-25.405,4.836c5.92,2.824,10.67,9.514,13.266,18.7.556,1.983.97,2.568,1.783,2.568.756,0,1.241-.613,1.626-2.068a36.325,36.325,0,0,1,7.717-14.906,17.8,17.8,0,0,1,5.706-4.294c1.341-.642,3.923-1.484,3.923-1.284a7.359,7.359,0,0,1-.514.941,50.475,50.475,0,0,0-4.208,9.614,72.847,72.847,0,0,0-2.482,10.413c-.442,2.382-.984,4.921-1.212,5.635a9.3,9.3,0,0,1-1.94,3.509c-1.526,1.583-4.536,2.425-8.687,2.425-6.276,0-9.087-1.583-10.484-5.934-.228-.713-.77-3.252-1.213-5.635a72.842,72.842,0,0,0-2.482-10.413,50.476,50.476,0,0,0-4.208-9.614,7.356,7.356,0,0,1-.514-.941C95.565-481.453,98.147-480.611,99.487-479.969Zm8.815,1.826c-.029.7-.071,1.312-.086,1.4A7.192,7.192,0,0,1,106.848-478l-1.341-1.384h2.839Zm9.657,1.255v2.5h-6.847v-4.993h6.847ZM122.225-478a7.192,7.192,0,0,1-1.369,1.255c-.014-.086-.057-.7-.086-1.4l-.043-1.241h2.839Zm-4.864,6.562c-.713,1.4-1.9,3.966-2.268,4.921a7.1,7.1,0,0,1-.556,1.255,7.1,7.1,0,0,1-.556-1.255c-.371-.956-1.555-3.523-2.268-4.921a19.143,19.143,0,0,1,2.824-.1A19.144,19.144,0,0,1,117.361-471.439Zm-5.791,25.419a28.68,28.68,0,0,0,8.145-.328l.813-.185v1.655c0,1.869-.171,2.339-1.027,2.867-.442.271-.727.285-4.964.285s-4.522-.014-4.964-.285c-.856-.528-1.027-1-1.027-2.867v-1.655l.827.185A21.808,21.808,0,0,0,111.569-446.02Z" transform="translate(-91 511.892)"/></svg>